<?xml version="1.0" encoding="iso-8859-1"?>
<!-- Generator: Adobe Illustrator 19.0.0, SVG Export Plug-In . SVG Version: 6.00 Build 0)  -->
<svg version="1.1" id="Capa_1" fill="#2083B6" xmlns="http://www.w3.org/2000/svg" xmlns:xlink="http://www.w3.org/1999/xlink" x="0px" y="0px"
	 viewBox="0 0 512 512" style="enable-background:new 0 0 512 512;" xml:space="preserve">
<g>
	<g>
		<g>
			<path d="M8.533,460.8C3.82,460.8,0,464.621,0,469.333s3.82,8.533,8.533,8.533h494.933c4.713,0,8.533-3.82,8.533-8.533
				s-3.82-8.533-8.533-8.533h-8.533V93.867C494.933,42.026,452.908,0,401.067,0C349.226,0,307.2,42.026,307.2,93.867v93.867
				c0,4.713,3.82,8.533,8.533,8.533s8.533-3.82,8.533-8.533v-17.067h68.267c4.713,0,8.533-3.82,8.533-8.533
				s-3.821-8.533-8.533-8.533h-68.267V128h68.267c4.713,0,8.533-3.82,8.533-8.533s-3.821-8.533-8.533-8.533h-68.267V93.867
				c0-42.415,34.385-76.8,76.8-76.8s76.8,34.385,76.8,76.8v17.067h-51.2c-4.713,0-8.533,3.82-8.533,8.533s3.82,8.533,8.533,8.533
				h51.2v25.6h-51.2c-4.713,0-8.533,3.82-8.533,8.533s3.82,8.533,8.533,8.533h51.2v25.6H366.933c-4.713,0-8.533,3.82-8.533,8.533
				s3.82,8.533,8.533,8.533h110.933v25.6h-76.911c-4.713,0-8.533,3.82-8.533,8.533s3.82,8.533,8.533,8.533h76.911v25.6h-51.2
				c-4.713,0-8.533,3.82-8.533,8.533s3.82,8.533,8.533,8.533h51.2v25.6h-85.333c-4.713,0-8.533,3.821-8.533,8.533
				c0,4.713,3.821,8.533,8.533,8.533h85.333v25.6h-85.333c-4.713,0-8.533,3.82-8.533,8.533s3.821,8.533,8.533,8.533h85.333v25.6
				h-85.333c-4.713,0-8.533,3.82-8.533,8.533s3.821,8.533,8.533,8.533h85.333V460.8H366.933V287.198l11.665,9.54
				c2.354,1.986,5.595,2.55,8.482,1.475c2.886-1.075,4.969-3.622,5.45-6.664c0.481-3.042-0.715-6.107-3.128-8.02l-187.733-153.6
				c-3.143-2.57-7.661-2.57-10.803,0L3.132,283.529c-3.563,3.006-4.054,8.316-1.103,11.924c2.951,3.609,8.252,4.181,11.906,1.285
				l11.665-9.54V460.8H8.533z M298.667,460.8h-204.8V341.333h204.8V460.8z M42.667,273.229l153.6-125.67l153.6,125.67V460.8h-34.133
				V341.333h8.533c4.713,0,8.533-3.821,8.533-8.533c0-4.713-3.82-8.533-8.533-8.533h-256c-4.713,0-8.533,3.821-8.533,8.533
				c0,4.713,3.82,8.533,8.533,8.533H76.8V460.8H42.667V273.229z"/>
			<path d="M85.333,494.933h-76.8c-4.713,0-8.533,3.82-8.533,8.533S3.82,512,8.533,512h76.8c4.713,0,8.533-3.82,8.533-8.533
				S90.046,494.933,85.333,494.933z"/>
			<path d="M503.467,494.933h-384c-4.713,0-8.533,3.82-8.533,8.533s3.82,8.533,8.533,8.533h384c4.713,0,8.533-3.82,8.533-8.533
				S508.18,494.933,503.467,494.933z"/>
			<path d="M136.533,298.667H256c4.713,0,8.533-3.82,8.533-8.533v-42.667c0-4.713-3.82-8.533-8.533-8.533H136.533
				c-4.713,0-8.533,3.82-8.533,8.533v42.667C128,294.846,131.82,298.667,136.533,298.667z M145.067,256h102.4v25.6h-102.4V256z"/>
			<path d="M85.333,281.6H102.4c4.713,0,8.533-3.821,8.533-8.533c0-4.713-3.82-8.533-8.533-8.533H85.333
				c-4.713,0-8.533,3.821-8.533,8.533C76.8,277.779,80.62,281.6,85.333,281.6z"/>
			<path d="M290.133,281.6H307.2c4.713,0,8.533-3.821,8.533-8.533c0-4.713-3.82-8.533-8.533-8.533h-17.067
				c-4.713,0-8.533,3.821-8.533,8.533C281.6,277.779,285.421,281.6,290.133,281.6z"/>
		</g>
	</g>
</g>
<g>
</g>
<g>
</g>
<g>
</g>
<g>
</g>
<g>
</g>
<g>
</g>
<g>
</g>
<g>
</g>
<g>
</g>
<g>
</g>
<g>
</g>
<g>
</g>
<g>
</g>
<g>
</g>
<g>
</g>
</svg>
